<svg id="Layer_1" data-name="Layer 1" xmlns="http://www.w3.org/2000/svg" viewBox="0 0 350 350"><defs><style>.cls-1{fill:#9c00ff;}.cls-2{fill:#fff;}</style></defs><title>websiteShape_Artboard 5</title><path class="cls-1" d="M140.48,274.62A101.59,101.59,0,1,0,62.24,154.14a101.58,101.58,0,0,0,78.24,120.48"/><path class="cls-2" d="M179.84,229.22c0-9.94-7.83-25.23-15.1-36.12-7.07,12.23-13.37,26.18-16.05,35.54l-29.43-21.4c9.55-3.82,21.21-14.53,28.86-25.42-13.38-2.87-28.1-5.35-37.65-4.59l11.65-34.59c6.12,7.65,19.88,15.67,32.3,20.07-2.1-13.76-4.77-29.05-7.45-38h36.89c-5.16,9-8.41,26.56-9,40.13,13.38-5.93,26-15.67,34-21.21l10.7,34.78c-9.55-1.91-25.22.57-37.84,4a246.43,246.43,0,0,0,27.91,25Z"/></svg>