<svg id="Layer_1" data-name="Layer 1" xmlns="http://www.w3.org/2000/svg" viewBox="0 0 350 350"><defs><style>.cls-1{fill:#9c00ff;}.cls-2{fill:#fff;}</style></defs><title>websiteShape_Artboard 6</title><path class="cls-1" d="M153.77,275A101.58,101.58,0,1,0,75.53,154.48,101.59,101.59,0,0,0,153.77,275"/><path class="cls-2" d="M183.81,112.17c27.13,0,41.44,10.4,41.44,35.12,0,22.48-17.46,32.7-40.32,36.79l-2.05,17.84h-28l-1.49-22.86c13.56-2.79,25.09-8.73,25.09-18.95,0-6.13-3-9.85-10.41-9.85-7.62,0-15.8,2.79-20.44,6.32V119C157.24,114.77,170.44,112.17,183.81,112.17ZM148.32,222.92c0-8.74,7.06-15.8,19.33-15.8,12.45,0,19.14,7.06,19.14,15.8s-8.55,15.79-19.14,15.79S148.32,231.65,148.32,222.92Z"/></svg>