<svg id="Layer_1" data-name="Layer 1" xmlns="http://www.w3.org/2000/svg" viewBox="0 0 350 350"><defs><style>.cls-1{fill:none;stroke:#000;stroke-width:2px;}</style></defs><title>websiteShape_Artboard 1</title><polygon class="cls-1" points="180.2 19.66 163.34 42.1 141.45 24.57 130.69 50.5 105.13 38.98 101.14 66.77 73.53 61.98 76.57 89.89 48.63 92.14 58.5 118.42 32 127.55 48.08 150.54 24.68 165.99 45.97 184.26 27.14 205.06 52.28 217.44 39.2 242.28 66.64 248.01 60.13 275.32 88.13 274.04 88.61 302.11 115.41 293.89 122.84 320.97 146.75 306.33 160.67 330.7 180.2 310.56 199.73 330.7 213.65 306.33 237.56 320.97 245 293.89 271.79 302.11 272.27 274.04 300.26 275.32 293.76 248.01 321.19 242.28 308.12 217.44 333.26 205.06 314.43 184.26 335.72 165.99 312.32 150.54 328.4 127.55 301.9 118.42 311.77 92.14 283.83 89.89 286.87 61.98 259.26 66.77 255.27 38.98 229.71 50.5 218.95 24.57 197.06 42.1 180.2 19.66"/></svg>