<svg id="Layer_1" data-name="Layer 1" xmlns="http://www.w3.org/2000/svg" viewBox="0 0 350 350"><defs><style>.cls-1{fill:white;stroke:#000;stroke-width:2px;}.cls-2{font-size:28px;font-family:Kvetch-01-RegularItalic, Kvetch-01;font-style:italic;}.cls-3{letter-spacing:0.08em;}.cls-4{letter-spacing:0.07em;}</style></defs><title>websiteShape_Artboard 2</title><polygon class="cls-1" points="175.2 19.66 158.34 42.1 136.45 24.57 125.69 50.5 100.13 38.98 96.14 66.77 68.53 61.98 71.57 89.89 43.63 92.14 53.5 118.42 27 127.55 43.08 150.54 19.68 165.99 40.97 184.26 22.14 205.06 47.28 217.44 34.2 242.28 61.64 248.01 55.13 275.32 83.13 274.04 83.61 302.11 110.41 293.89 117.84 320.97 141.75 306.33 155.67 330.7 175.2 310.56 194.73 330.7 208.65 306.33 232.56 320.97 240 293.89 266.79 302.11 267.27 274.04 295.26 275.32 288.76 248.01 316.19 242.28 303.12 217.44 328.26 205.06 309.43 184.26 330.72 165.99 307.32 150.54 323.4 127.55 296.9 118.42 306.77 92.14 278.83 89.89 281.87 61.98 254.26 66.77 250.27 38.98 224.71 50.5 213.95 24.57 192.06 42.1 175.2 19.66"/><text class="cls-2" transform="translate(120.6 133.34)"><tspan class="cls-3">Th</tspan><tspan x="74.2" y="0">e</tspan></text><text class="cls-2" transform="translate(83.5 168.34)"><tspan class="cls-3">De</tspan><tspan class="cls-4" x="74.2" y="0">p</tspan><tspan class="cls-3" x="111.27" y="0">t</tspan><tspan x="148.37" y="0">h</tspan></text><text class="cls-2" transform="translate(139.15 203.34)"><tspan class="cls-3">o</tspan><tspan x="37.1" y="0">f</tspan></text><text class="cls-2" transform="translate(102.05 238.34)"><tspan class="cls-3">T</tspan><tspan class="cls-4" x="37.1" y="0">i</tspan><tspan class="cls-3" x="74.17" y="0">m</tspan><tspan x="111.27" y="0">e</tspan></text></svg>
